<svg width="1200" height="627" viewBox="0 0 1200 627" fill="none" xmlns="http://www.w3.org/2000/svg">
<rect width="1200" height="627" fill="white"/>
<path d="M532.768 290.061H543.36V275.63L563.318 269.95V290.061H582.048V306.948H563.318V336.424C563.318 341.746 563.83 345.584 564.853 347.938C565.979 350.19 568.026 351.315 570.994 351.315C573.041 351.315 574.781 351.111 576.214 350.701C577.749 350.292 579.438 349.678 581.28 348.859L584.811 364.211C582.048 365.542 578.824 366.667 575.139 367.589C571.455 368.51 567.719 368.97 563.932 368.97C556.87 368.97 551.651 367.179 548.273 363.597C544.998 359.913 543.36 353.925 543.36 345.635V306.948H532.768V290.061ZM602.256 290.061H622.213V366.821H602.256V290.061ZM599.339 268.415C599.339 265.447 600.414 262.939 602.563 260.892C604.814 258.743 607.885 257.668 611.774 257.668C615.663 257.668 618.785 258.743 621.139 260.892C623.595 262.939 624.823 265.447 624.823 268.415C624.823 271.383 623.595 273.89 621.139 275.937C618.785 277.882 615.663 278.854 611.774 278.854C607.885 278.854 604.814 277.882 602.563 275.937C600.414 273.89 599.339 271.383 599.339 268.415ZM713.029 339.801C713.029 344.1 713.08 348.399 713.182 352.697C713.285 356.996 713.745 361.755 714.564 366.974H700.287L697.523 356.996H696.909C694.862 360.578 691.894 363.495 688.005 365.746C684.218 367.896 679.715 368.97 674.495 368.97C664.875 368.97 657.403 365.797 652.081 359.452C646.759 353.106 644.098 343.179 644.098 329.669C644.098 316.569 647.066 306.385 653.003 299.119C658.939 291.852 667.638 288.219 679.101 288.219C682.274 288.219 684.884 288.423 686.93 288.833C688.977 289.14 691.024 289.703 693.071 290.521V259.357H713.029V339.801ZM679.101 352.083C682.99 352.083 686.061 351.162 688.312 349.32C690.564 347.375 692.15 344.612 693.071 341.03V308.483C691.638 307.358 690.052 306.539 688.312 306.027C686.572 305.413 684.321 305.106 681.557 305.106C675.928 305.106 671.681 306.999 668.815 310.786C666.052 314.573 664.67 321.072 664.67 330.283C664.67 336.833 665.796 342.104 668.048 346.096C670.401 350.087 674.086 352.083 679.101 352.083ZM798.089 360.22C795.018 362.676 790.822 364.774 785.5 366.514C780.28 368.151 774.702 368.97 768.766 368.97C756.382 368.97 747.325 365.388 741.593 358.224C735.862 350.957 732.996 341.03 732.996 328.441C732.996 314.931 736.22 304.799 742.668 298.044C749.116 291.289 758.173 287.912 769.841 287.912C773.73 287.912 777.517 288.423 781.201 289.447C784.886 290.47 788.161 292.159 791.027 294.513C793.892 296.867 796.195 300.04 797.935 304.031C799.675 308.023 800.545 312.987 800.545 318.923C800.545 321.072 800.391 323.375 800.084 325.831C799.88 328.287 799.521 330.846 799.01 333.507H752.954C753.261 339.955 754.898 344.816 757.866 348.091C760.937 351.367 765.849 353.004 772.604 353.004C776.8 353.004 780.536 352.39 783.811 351.162C787.189 349.831 789.747 348.501 791.487 347.17L798.089 360.22ZM769.534 303.878C764.314 303.878 760.425 305.464 757.866 308.637C755.41 311.707 753.926 315.852 753.414 321.072H781.969C782.378 315.545 781.508 311.298 779.359 308.33C777.312 305.362 774.037 303.878 769.534 303.878ZM820.781 290.061H835.365L837.668 299.272H838.282C840.943 295.383 844.065 292.517 847.647 290.675C851.331 288.833 855.783 287.912 861.003 287.912C870.624 287.912 877.839 290.982 882.649 297.123C887.46 303.161 889.865 312.935 889.865 326.445C889.865 332.995 889.097 338.931 887.562 344.253C886.027 349.473 883.724 353.925 880.654 357.61C877.685 361.294 874.001 364.109 869.6 366.053C865.302 367.998 860.338 368.97 854.709 368.97C851.536 368.97 848.926 368.714 846.879 368.203C844.832 367.793 842.785 367.077 840.738 366.053V397.525H820.781V290.061ZM855.016 304.799C851.126 304.799 848.056 305.771 845.804 307.716C843.655 309.66 841.966 312.577 840.738 316.466V348.399C842.171 349.524 843.706 350.445 845.344 351.162C847.084 351.776 849.335 352.083 852.099 352.083C857.83 352.083 862.129 350.087 864.994 346.096C867.86 342.002 869.293 335.298 869.293 325.985C869.293 319.23 868.167 314.01 865.916 310.326C863.664 306.641 860.031 304.799 855.016 304.799ZM909.368 294.513C913.462 292.671 918.323 291.238 923.952 290.214C929.581 289.089 935.466 288.526 941.607 288.526C946.929 288.526 951.381 289.191 954.963 290.521C958.545 291.75 961.36 293.541 963.407 295.895C965.556 298.249 967.04 301.063 967.859 304.338C968.78 307.613 969.241 311.298 969.241 315.392C969.241 319.895 969.087 324.449 968.78 329.055C968.473 333.558 968.268 338.01 968.166 342.411C968.166 346.812 968.319 351.111 968.626 355.307C968.934 359.401 969.701 363.29 970.929 366.974H954.656L951.432 356.382H950.665C948.618 359.554 945.752 362.318 942.068 364.672C938.485 366.923 933.829 368.049 928.097 368.049C924.515 368.049 921.291 367.537 918.425 366.514C915.56 365.388 913.103 363.853 911.056 361.908C909.01 359.861 907.423 357.507 906.297 354.846C905.172 352.083 904.609 349.013 904.609 345.635C904.609 340.927 905.632 336.987 907.679 333.814C909.828 330.539 912.848 327.929 916.737 325.985C920.728 323.938 925.436 322.556 930.861 321.84C936.387 321.021 942.528 320.765 949.283 321.072C949.999 315.341 949.59 311.247 948.055 308.79C946.52 306.232 943.091 304.952 937.769 304.952C933.777 304.952 929.53 305.362 925.027 306.181C920.626 306.999 916.993 308.074 914.127 309.404L909.368 294.513ZM934.699 351.622C938.69 351.622 941.863 350.752 944.217 349.013C946.571 347.17 948.311 345.226 949.436 343.179V333.2C946.264 332.893 943.193 332.842 940.225 333.047C937.36 333.251 934.801 333.712 932.549 334.428C930.298 335.145 928.507 336.168 927.176 337.499C925.846 338.829 925.18 340.518 925.18 342.565C925.18 345.43 925.999 347.682 927.637 349.32C929.377 350.855 931.73 351.622 934.699 351.622ZM1020.07 333.2L1022.83 345.175H1023.75L1025.75 333.047L1037.42 290.061H1057.99L1034.65 359.298C1032.71 365.03 1030.82 370.25 1028.97 374.957C1027.23 379.768 1025.29 383.913 1023.14 387.393C1020.99 390.872 1018.59 393.533 1015.93 395.376C1013.37 397.32 1010.3 398.293 1006.71 398.293C1001.39 398.293 997.144 397.423 993.972 395.683L997.656 379.717C999.191 380.331 1000.73 380.638 1002.26 380.638C1004.62 380.638 1006.87 379.614 1009.02 377.567C1011.27 375.623 1012.96 372.041 1014.08 366.821L981.997 290.061H1005.95L1020.07 333.2Z" fill="#111827"/>
<path fill-rule="evenodd" clip-rule="evenodd" d="M261.6 479.2C353.058 479.2 427.2 405.058 427.2 313.6C427.2 222.142 353.058 148 261.6 148C170.142 148 96 222.142 96 313.6C96 405.058 170.142 479.2 261.6 479.2ZM262.424 461.075C344.327 461.075 410.722 394.679 410.722 312.776C410.722 230.873 344.327 164.478 262.424 164.478C180.521 164.478 114.125 230.873 114.125 312.776C114.125 394.679 180.521 461.075 262.424 461.075Z" fill="#38BDF8"/>
<path fill-rule="evenodd" clip-rule="evenodd" d="M356.966 407.298C380.038 383.1 394.245 350.074 394.245 313.667C394.245 239.462 335.227 179.307 262.424 179.307C189.621 179.307 130.603 239.462 130.603 313.667C130.603 375.143 171.111 426.976 226.406 442.949C144.39 391.304 126.534 263.715 204.623 216.515C321.234 158.637 387.407 302.027 267.491 306.432C265.463 306.432 265.463 304.365 267.491 303.331C315.089 279.074 291.925 224.172 239.099 248.554C163.331 295.038 214.216 412.611 304.507 441.034C307.753 439.92 310.943 438.68 314.071 437.322C245.134 399.615 224.017 340.573 232.001 300.231C232.37 298.369 235.05 293.833 236.057 301.264C249.426 347.432 291.836 408.979 356.966 407.298Z" fill="#38BDF8"/>
</svg>
