<svg width="1009" height="332" viewBox="0 0 1009 332" fill="none" xmlns="http://www.w3.org/2000/svg">
<path d="M436.768 142.061H447.36V127.63L467.318 121.95V142.061H486.048V158.948H467.318V188.424C467.318 193.746 467.83 197.584 468.853 199.938C469.979 202.19 472.026 203.315 474.994 203.315C477.041 203.315 478.781 203.111 480.214 202.701C481.749 202.292 483.438 201.678 485.28 200.859L488.811 216.211C486.048 217.542 482.824 218.667 479.139 219.589C475.455 220.51 471.719 220.97 467.932 220.97C460.87 220.97 455.651 219.179 452.273 215.597C448.998 211.913 447.36 205.925 447.36 197.635V158.948H436.768V142.061ZM506.256 142.061H526.213V218.821H506.256V142.061ZM503.339 120.415C503.339 117.447 504.414 114.939 506.563 112.892C508.814 110.743 511.885 109.668 515.774 109.668C519.663 109.668 522.785 110.743 525.139 112.892C527.595 114.939 528.823 117.447 528.823 120.415C528.823 123.383 527.595 125.89 525.139 127.937C522.785 129.882 519.663 130.854 515.774 130.854C511.885 130.854 508.814 129.882 506.563 127.937C504.414 125.89 503.339 123.383 503.339 120.415ZM617.029 191.801C617.029 196.1 617.08 200.399 617.182 204.697C617.285 208.996 617.745 213.755 618.564 218.974H604.287L601.523 208.996H600.909C598.862 212.578 595.894 215.495 592.005 217.746C588.218 219.896 583.715 220.97 578.495 220.97C568.875 220.97 561.403 217.797 556.081 211.452C550.759 205.106 548.098 195.179 548.098 181.669C548.098 168.569 551.066 158.385 557.003 151.119C562.939 143.852 571.638 140.219 583.101 140.219C586.274 140.219 588.884 140.423 590.93 140.833C592.977 141.14 595.024 141.703 597.071 142.521V111.357H617.029V191.801ZM583.101 204.083C586.99 204.083 590.061 203.162 592.312 201.32C594.564 199.375 596.15 196.612 597.071 193.03V160.483C595.638 159.358 594.052 158.539 592.312 158.027C590.572 157.413 588.321 157.106 585.557 157.106C579.928 157.106 575.681 158.999 572.815 162.786C570.052 166.573 568.67 173.072 568.67 182.283C568.67 188.833 569.796 194.104 572.048 198.096C574.401 202.087 578.086 204.083 583.101 204.083ZM702.089 212.22C699.018 214.676 694.822 216.774 689.5 218.514C684.28 220.151 678.702 220.97 672.766 220.97C660.382 220.97 651.325 217.388 645.593 210.224C639.862 202.957 636.996 193.03 636.996 180.441C636.996 166.931 640.22 156.799 646.668 150.044C653.116 143.289 662.173 139.912 673.841 139.912C677.73 139.912 681.517 140.423 685.201 141.447C688.886 142.47 692.161 144.159 695.027 146.513C697.892 148.867 700.195 152.04 701.935 156.031C703.675 160.023 704.545 164.987 704.545 170.923C704.545 173.072 704.391 175.375 704.084 177.831C703.88 180.287 703.521 182.846 703.01 185.507H656.954C657.261 191.955 658.898 196.816 661.866 200.091C664.937 203.367 669.849 205.004 676.604 205.004C680.8 205.004 684.536 204.39 687.811 203.162C691.189 201.831 693.747 200.501 695.487 199.17L702.089 212.22ZM673.534 155.878C668.314 155.878 664.425 157.464 661.866 160.637C659.41 163.707 657.926 167.852 657.414 173.072H685.969C686.378 167.545 685.508 163.298 683.359 160.33C681.312 157.362 678.037 155.878 673.534 155.878ZM724.781 142.061H739.365L741.668 151.272H742.282C744.943 147.383 748.065 144.517 751.647 142.675C755.331 140.833 759.783 139.912 765.003 139.912C774.624 139.912 781.839 142.982 786.649 149.123C791.46 155.161 793.865 164.935 793.865 178.445C793.865 184.995 793.097 190.931 791.562 196.253C790.027 201.473 787.724 205.925 784.654 209.61C781.685 213.294 778.001 216.109 773.6 218.053C769.302 219.998 764.338 220.97 758.709 220.97C755.536 220.97 752.926 220.714 750.879 220.203C748.832 219.793 746.785 219.077 744.738 218.053V249.525H724.781V142.061ZM759.016 156.799C755.126 156.799 752.056 157.771 749.804 159.716C747.655 161.66 745.966 164.577 744.738 168.466V200.399C746.171 201.524 747.706 202.445 749.344 203.162C751.084 203.776 753.335 204.083 756.099 204.083C761.83 204.083 766.129 202.087 768.994 198.096C771.86 194.002 773.293 187.298 773.293 177.985C773.293 171.23 772.167 166.01 769.916 162.326C767.664 158.641 764.031 156.799 759.016 156.799ZM813.368 146.513C817.462 144.671 822.323 143.238 827.952 142.214C833.581 141.089 839.466 140.526 845.607 140.526C850.929 140.526 855.381 141.191 858.963 142.521C862.545 143.75 865.36 145.541 867.407 147.895C869.556 150.249 871.04 153.063 871.859 156.338C872.78 159.613 873.241 163.298 873.241 167.392C873.241 171.895 873.087 176.449 872.78 181.055C872.473 185.558 872.268 190.01 872.166 194.411C872.166 198.812 872.319 203.111 872.626 207.307C872.934 211.401 873.701 215.29 874.929 218.974H858.656L855.432 208.382H854.665C852.618 211.554 849.752 214.318 846.068 216.672C842.485 218.923 837.829 220.049 832.097 220.049C828.515 220.049 825.291 219.537 822.425 218.514C819.56 217.388 817.103 215.853 815.056 213.908C813.01 211.861 811.423 209.507 810.297 206.846C809.172 204.083 808.609 201.013 808.609 197.635C808.609 192.927 809.632 188.987 811.679 185.814C813.828 182.539 816.848 179.929 820.737 177.985C824.728 175.938 829.436 174.556 834.861 173.84C840.387 173.021 846.528 172.765 853.283 173.072C853.999 167.341 853.59 163.247 852.055 160.79C850.52 158.232 847.091 156.952 841.769 156.952C837.777 156.952 833.53 157.362 829.027 158.181C824.626 158.999 820.993 160.074 818.127 161.404L813.368 146.513ZM838.699 203.622C842.69 203.622 845.863 202.752 848.217 201.013C850.571 199.17 852.311 197.226 853.436 195.179V185.2C850.264 184.893 847.193 184.842 844.225 185.047C841.36 185.251 838.801 185.712 836.549 186.428C834.298 187.145 832.507 188.168 831.176 189.499C829.846 190.829 829.18 192.518 829.18 194.565C829.18 197.43 829.999 199.682 831.637 201.32C833.377 202.855 835.73 203.622 838.699 203.622ZM924.07 185.2L926.833 197.175H927.755L929.75 185.047L941.418 142.061H961.99L938.654 211.298C936.71 217.03 934.816 222.25 932.974 226.957C931.234 231.768 929.29 235.913 927.14 239.393C924.991 242.872 922.586 245.533 919.925 247.376C917.366 249.32 914.296 250.293 910.714 250.293C905.392 250.293 901.144 249.423 897.972 247.683L901.656 231.717C903.191 232.331 904.727 232.638 906.262 232.638C908.616 232.638 910.867 231.614 913.017 229.567C915.268 227.623 916.957 224.041 918.083 218.821L885.997 142.061H909.946L924.07 185.2Z" fill="#111827"/>
<path fill-rule="evenodd" clip-rule="evenodd" d="M165.6 331.2C257.058 331.2 331.2 257.058 331.2 165.6C331.2 74.1416 257.058 0 165.6 0C74.1416 0 0 74.1416 0 165.6C0 257.058 74.1416 331.2 165.6 331.2ZM166.424 313.075C248.327 313.075 314.722 246.679 314.722 164.776C314.722 82.873 248.327 16.4775 166.424 16.4775C84.5207 16.4775 18.1252 82.873 18.1252 164.776C18.1252 246.679 84.5207 313.075 166.424 313.075Z" fill="#38BDF8"/>
<path fill-rule="evenodd" clip-rule="evenodd" d="M260.966 259.298C284.038 235.1 298.245 202.074 298.245 165.667C298.245 91.4621 239.227 31.3075 166.424 31.3075C93.6213 31.3075 34.603 91.4621 34.603 165.667C34.603 227.143 75.1113 278.976 130.406 294.949C48.39 243.304 30.5338 115.715 108.623 68.5149C225.234 10.6369 291.407 154.027 171.491 158.432C169.463 158.432 169.463 156.365 171.491 155.331C219.089 131.074 195.925 76.1722 143.099 100.554C67.3309 147.038 118.216 264.611 208.507 293.034C211.753 291.92 214.943 290.68 218.071 289.322C149.134 251.615 128.017 192.573 136.001 152.231C136.37 150.369 139.05 145.833 140.057 153.264C153.426 199.432 195.836 260.979 260.966 259.298Z" fill="#38BDF8"/>
</svg>
