<svg width="222" height="222" viewBox="0 0 222 222" fill="none" xmlns="http://www.w3.org/2000/svg">
<path fill-rule="evenodd" clip-rule="evenodd" d="M111 222C172.304 222 222 172.304 222 111C222 49.6964 172.304 0 111 0C49.6964 0 0 49.6964 0 111C0 172.304 49.6964 222 111 222ZM111.552 209.851C166.451 209.851 210.955 165.346 210.955 110.448C210.955 55.5489 166.451 11.0447 111.552 11.0447C56.6532 11.0447 12.149 55.5489 12.149 110.448C12.149 165.346 56.6532 209.851 111.552 209.851Z" fill="#38BDF8"/>
<path fill-rule="evenodd" clip-rule="evenodd" d="M174.922 173.805C190.387 157.585 199.91 135.448 199.91 111.045C199.91 61.3061 160.351 20.9851 111.552 20.9851C62.7532 20.9851 23.1938 61.3061 23.1938 111.045C23.1938 152.252 50.3462 186.995 87.4098 197.701C32.4352 163.084 20.4663 77.5625 72.8087 45.9248C150.972 7.12983 195.327 103.243 114.949 106.195C113.589 106.195 113.589 104.81 114.949 104.117C146.853 87.8577 131.327 51.0575 95.9178 67.4004C45.1311 98.5584 79.239 177.366 139.76 196.417C141.936 195.671 144.074 194.84 146.171 193.929C99.9627 168.655 85.8081 129.08 91.16 102.039C91.407 100.791 93.2038 97.7505 93.8787 102.731C102.84 133.677 131.267 174.931 174.922 173.805Z" fill="#38BDF8"/>
</svg>
